HIERARCHY
ROOT Hips
{
	OFFSET 0.00000 0.00000 0.00000
	CHANNELS 6 Xposition Yposition Zposition Zrotation Yrotation Xrotation 
	JOINT LHipJoint
	{
		OFFSET 0 0 0
		CHANNELS 3 Zrotation Yrotation Xrotation
		JOINT LeftHip
		{
			OFFSET 1.58895 -1.83665 0.71753
			CHANNELS 3 Zrotation Yrotation Xrotation
			JOINT LeftKnee
			{
				OFFSET 2.50528 -6.88321 0.00000
				CHANNELS 3 Zrotation Yrotation Xrotation
				JOINT LeftAnkle
				{
					OFFSET 2.63244 -7.23257 0.00000
					CHANNELS 3 Zrotation Yrotation Xrotation
					JOINT LeftToe
					{
						OFFSET 0.23691 -0.65090 1.72750
						CHANNELS 3 Zrotation Yrotation Xrotation
						End Site
						{
							OFFSET 0.00000 -0.00000 0.92561
						}
					}
				}
			}
		}
	}
	JOINT RHipJoint
	{
		OFFSET 0 0 0
		CHANNELS 3 Zrotation Yrotation Xrotation
		JOINT RightHip
		{
			OFFSET -1.51435 -1.83665 0.71753
			CHANNELS 3 Zrotation Yrotation Xrotation
			JOINT RightKnee
			{
				OFFSET -2.54551 -6.99375 0.00000
				CHANNELS 3 Zrotation Yrotation Xrotation
				JOINT RightAnkle
				{
					OFFSET -2.66027 -7.30903 0.00000
					CHANNELS 3 Zrotation Yrotation Xrotation
					JOINT RightToe
					{
						OFFSET -0.22981 -0.63138 2.03959
						CHANNELS 3 Zrotation Yrotation Xrotation
						End Site
						{
							OFFSET -0.00000 -0.00000 1.07060
						}
					}
				}
			}
		}
	}
	JOINT lowerback
	{
		OFFSET 0 0 0
		CHANNELS 3 Zrotation Yrotation Xrotation
		JOINT Chest
		{
			OFFSET -0.02651 1.86275 -0.11152
			CHANNELS 3 Zrotation Yrotation Xrotation
			JOINT Chest2
			{
				OFFSET 0.01019 1.86224 0.04087
				CHANNELS 3 Zrotation Yrotation Xrotation
				JOINT lowerneck
				{
					OFFSET 0 0 0
					CHANNELS 3 Zrotation Yrotation Xrotation
					JOINT Neck
					{
						OFFSET -0.01926 1.80512 0.08867
						CHANNELS 3 Zrotation Yrotation Xrotation
						JOINT Head
						{
							OFFSET 0.05516 1.76451 -0.38475
							CHANNELS 3 Zrotation Yrotation Xrotation
							End Site
							{
								OFFSET 0.01592 1.82587 -0.14001
							}
						}
					}
				}
				JOINT LeftCollar
				{
					OFFSET 0 0 0
					CHANNELS 3 Zrotation Yrotation Xrotation
					JOINT LeftShoulder
					{
						OFFSET 3.47116 1.51376 0.14491
CHANNELS 3 Zrotation Xrotation Yrotation
						JOINT LeftElbow
						{
OFFSET 0 -4.780950 0.000000
CHANNELS 3 Zrotation Xrotation Yrotation
							JOINT LeftWrist
							{
OFFSET 0 -3.586150 -0.000000
CHANNELS 3 Zrotation Xrotation Yrotation
								JOINT lhand
								{
									OFFSET 0 0 0
CHANNELS 3 Zrotation Xrotation Yrotation
									JOINT LFingers
									{
OFFSET 0 -0.659810 0.000000
CHANNELS 3 Zrotation Xrotation Yrotation
										End Site
										{
OFFSET 0 -0.531960 0.000000
										}
									}
								}
								JOINT LThumb
								{
OFFSET 0 0.000000 0.000000
CHANNELS 3 Zrotation Xrotation Yrotation
									End Site
									{
OFFSET 0 -0.540080 0.540080
									}
								}
							}
						}
					}
				}
				JOINT RightCollar
				{
					OFFSET 0 0 0
					CHANNELS 3 Zrotation Yrotation Xrotation
					JOINT RightShoulder
					{
						OFFSET -3.31725 1.61216 0.35156
CHANNELS 3 Zrotation Xrotation Yrotation
						JOINT RightElbow
						{
OFFSET 0 -4.489130 0.000000
CHANNELS 3 Zrotation Xrotation Yrotation
							JOINT RightWrist
							{
OFFSET 0 -3.705100 0.000000
CHANNELS 3 Zrotation Xrotation Yrotation
								JOINT rhand
								{
									OFFSET 0 0 0
CHANNELS 3 Zrotation Xrotation Yrotation
									JOINT RFingers
									{
OFFSET 0 -0.449140 0.000000
CHANNELS 3 Zrotation Xrotation Yrotation
										End Site
										{
OFFSET 0 -0.362110 0.000000
										}
									}
								}
								JOINT RThumb
								{
OFFSET 0 0.000000 0.000000
CHANNELS 3 Zrotation Xrotation Yrotation
									End Site
									{
OFFSET 0 -0.367630 0.367630
									}
								}
							}
						}
					}
				}
			}
		}
	}
}
MOTION
Frames: 12
Frame Time: .0083333
-0.6095 18.7119 5.6427 -0.9075 -0.2174 1.4044 0.0000 0.0000 0.0000 -13.3266 -6.5097 -2.9344 1.2023 6.9567 19.5871 1.3145 3.6350 -23.2393 8.5531 -16.5114 -54.5313 0.0000 0.0000 0.0000 0.0000 0.0000 0.0000 0.0000 0.0000 0.0000 -0.0000 -0.0000 0.0000 -0.0000 -0.0000 0.0000 -1.4085 -0.1713 4.3667 -0.4716 -0.3467 -2.7702 0.3322 -0.1298 -5.3143 -0.2226 -0.9094 -11.9148 2.5446 -2.1386 32.2879 0.7132 -0.6552 12.7390 0.0000 0.0000 0.0000 -2.9147 12.3732 -20.1297 21.7721 -32.7185 6.4622 16.482 -1.5868 29.5384 0.0 0.0 0.0 -7.1250 0.0 0.0 -8.3486 -0.3153 -8.4848 0.0000 0.0000 0.0000 1.7608 20.3149 17.4059 -26.2905 -37.4942 -9.0639 -5.0675 22.5293 30.8636 0.0 0.0 0.0 7.1250 0.0 -0.0 29.5319 58.4066 -10.2561
-0.6100 18.7128 5.6444 -0.9042 -0.2117 1.4495 0.0000 0.0000 0.0000 -13.3297 -6.5580 -2.9545 1.2005 6.9517 19.5725 1.3138 3.6435 -23.2380 8.5157 -16.4858 -54.3996 0.0000 0.0000 0.0000 0.0000 0.0000 0.0000 0.0000 0.0000 0.0000 -0.0000 -0.0000 0.0000 -0.0000 -0.0000 0.0000 -1.4061 -0.1648 4.3152 -0.4652 -0.3369 -2.7925 0.3364 -0.1248 -5.3085 -0.1629 -0.9410 -11.8827 2.4883 -2.1834 32.3266 0.6750 -0.6750 12.7478 0.0000 -0.0000 0.0000 -2.9563 12.4198 -19.9254 21.6831 -32.617 6.4142 16.3049 -1.7705 30.1637 0.0 0.0 0.0 -7.1250 0.0 0.0 -8.5131 -0.9126 -8.7441 0.0000 -0.0000 0.0000 1.7591 20.325 17.4842 -26.2936 -37.4972 -9.0658 -5.1902 22.545 30.8896 0.0 0.0 0.0 7.1250 0.0 -0.0 29.4331 58.4559 -10.2533
-0.6112 18.7134 5.6454 -0.8858 -0.2056 1.4807 0.0000 0.0000 0.0000 -13.3552 -6.6410 -2.9456 1.1982 6.9454 19.5536 1.3138 3.7361 -23.2855 8.5183 -16.4876 -54.4089 0.0000 0.0000 0.0000 0.0000 0.0000 0.0000 0.0000 0.0000 0.0000 -0.0000 -0.0000 0.0000 -0.0000 -0.0000 0.0000 -1.4442 -0.1637 4.2910 -0.4440 -0.3367 -2.8141 0.3796 -0.1228 -5.3169 -0.2246 -0.9547 -11.8805 2.5420 -2.2076 32.3987 0.7036 -0.6856 12.7795 -0.0000 0.0000 0.0000 -3.0559 12.5401 -19.7524 21.8436 -32.7999 6.5009 15.8685 -1.3955 29.9661 0.0 0.0 0.0 -7.1250 0.0 0.0 -8.7454 -0.6419 -8.9472 -0.0000 0.0000 0.0000 1.7343 20.3331 17.5648 -26.3014 -37.5048 -9.0705 -5.3333 22.5849 30.8189 0.0 0.0 0.0 7.1250 0.0 -0.0 29.2311 58.4263 -10.1536
-0.6126 18.7135 5.6456 -0.8711 -0.1990 1.4972 0.0000 0.0000 0.0000 -13.3699 -6.6829 -2.9459 1.1971 6.9424 19.5447 1.3148 3.7798 -23.3161 8.5320 -16.4969 -54.4570 0.0000 0.0000 0.0000 0.0000 0.0000 0.0000 0.0000 0.0000 0.0000 -0.0000 -0.0000 0.0000 -0.0000 -0.0000 0.0000 -1.4605 -0.1595 4.2778 -0.4358 -0.3316 -2.8291 0.3968 -0.1194 -5.3251 -0.2762 -0.9692 -11.8085 2.5912 -2.2310 32.3934 0.7286 -0.6965 12.7636 -0.0000 0.0000 0.0000 -3.0882 12.6174 -19.6767 21.9311 -32.899 6.5484 15.4104 -1.0265 29.7462 0.0 0.0 0.0 -7.1250 0.0 0.0 -8.9896 -0.3472 -9.1571 -0.0000 0.0000 0.0000 1.7744 20.3256 17.5501 -26.3220 -37.5249 -9.0831 -5.3132 22.5594 30.9511 0.0 0.0 0.0 7.1250 0.0 -0.0 29.3642 58.536 -10.2841
-0.6139 18.7133 5.6466 -0.8884 -0.1894 1.5114 0.0000 0.0000 0.0000 -13.3460 -6.7126 -2.9497 1.1970 6.9420 19.5436 1.3196 3.7469 -23.3384 8.5159 -16.4859 -54.4004 0.0000 0.0000 0.0000 0.0000 0.0000 0.0000 0.0000 0.0000 0.0000 -0.0000 -0.0000 0.0000 -0.0000 -0.0000 0.0000 -1.4515 -0.1527 4.2673 -0.4091 -0.3207 -2.8500 0.4184 -0.1136 -5.3410 -0.3289 -1.0019 -11.6894 2.6432 -2.2807 32.3589 0.7511 -0.7196 12.7261 0.0000 0.0000 0.0000 -3.0917 12.6644 -19.7096 21.9398 -32.909 6.5531 15.004 -0.7491 29.4814 0.0 0.0 0.0 -7.1250 0.0 0.0 -9.2012 -0.0179 -9.3251 0.0000 0.0000 0.0000 1.7977 20.3465 17.5385 -26.3449 -37.5473 -9.097 -5.2608 22.503 31.1456 0.0 0.0 0.0 7.1250 0.0 -0.0 29.5843 58.6921 -10.4832
-0.6148 18.7130 5.6490 -0.9297 -0.1812 1.5272 0.0000 0.0000 0.0000 -13.2976 -6.7283 -2.9573 1.1978 6.9443 19.5504 1.3212 3.7408 -23.3476 8.5167 -16.4865 -54.4033 0.0000 0.0000 0.0000 0.0000 0.0000 0.0000 0.0000 0.0000 0.0000 -0.0000 -0.0000 0.0000 -0.0000 -0.0000 0.0000 -1.4290 -0.1476 4.2477 -0.3655 -0.3101 -2.8680 0.4500 -0.1082 -5.3487 -0.4528 -1.0231 -11.6357 2.7892 -2.3293 32.3998 0.8228 -0.7375 12.7365 -0.0000 0.0000 0.0000 -3.1162 12.6993 -19.7266 21.9326 -32.9008 6.5492 14.5653 -0.458 29.1687 0.0 0.0 0.0 -7.1250 0.0 0.0 -9.4295 0.3626 -9.4995 -0.0000 0.0000 0.0000 1.7813 20.3525 17.5488 -26.3411 -37.5435 -9.0947 -5.975 22.8541 31.1673 0.0 0.0 0.0 7.1250 0.0 -0.0 28.8938 58.8697 -10.3364
-0.6153 18.7128 5.6515 -0.9602 -0.1723 1.5524 0.0000 0.0000 0.0000 -13.2585 -6.7217 -2.9865 1.1990 6.9476 19.5603 1.3185 3.7518 -23.3319 8.5331 -16.4977 -54.4610 0.0000 0.0000 0.0000 0.0000 0.0000 0.0000 0.0000 0.0000 0.0000 -0.0000 -0.0000 0.0000 -0.0000 -0.0000 0.0000 -1.3926 -0.1454 4.1867 -0.3394 -0.3023 -2.8626 0.4557 -0.1054 -5.3083 -0.5260 -1.0317 -11.6262 2.8624 -2.3478 32.4227 0.8616 -0.7450 12.7465 -0.0000 0.0000 0.0000 -3.1275 12.6825 -19.6974 21.9047 -32.8692 6.5341 13.9867 -0.0309 28.8432 0.0 0.0 0.0 -7.1250 0.0 0.0 -9.7409 0.7745 -9.7509 -0.0000 0.0000 0.0000 1.7877 20.2773 17.4905 -26.2792 -37.4831 -9.057 -5.8228 22.8472 31.3194 0.0 0.0 0.0 7.1250 0.0 -0.0 29.1780 58.9673 -10.5188
-0.6158 18.7129 5.6540 -0.9680 -0.1636 1.5932 0.0000 0.0000 0.0000 -13.2345 -6.6907 -3.0498 1.2001 6.9506 19.5691 1.3213 3.6884 -23.3218 8.5271 -16.4936 -54.4397 0.0000 0.0000 0.0000 0.0000 0.0000 0.0000 0.0000 0.0000 0.0000 -0.0000 -0.0000 0.0000 -0.0000 -0.0000 0.0000 -1.3877 -0.1506 4.0906 -0.3105 -0.3056 -2.8534 0.4829 -0.1072 -5.2435 -0.5743 -1.0465 -11.6202 2.8469 -2.3516 32.4098 0.8635 -0.7547 12.7401 -0.0000 -0.0000 0.0000 -3.1809 12.6385 -19.5613 21.8513 -32.8086 6.5051 13.3835 0.5259 28.5813 0.0 0.0 0.0 -7.1250 0.0 0.0 -10.0740 1.1237 -10.0318 -0.0000 -0.0000 0.0000 1.7762 20.1889 17.4533 -26.2059 -37.4114 -9.0125 -4.1679 22.0869 31.4773 0.0 0.0 0.0 7.1250 0.0 -0.0 30.9559 58.7333 -11.0612
-0.6160 18.7128 5.6563 -0.9640 -0.1573 1.6291 0.0000 0.0000 0.0000 -13.2270 -6.6624 -3.1024 1.2005 6.9517 19.5725 1.3220 3.6170 -23.2907 8.5140 -16.4846 -54.3938 0.0000 0.0000 0.0000 0.0000 0.0000 0.0000 0.0000 0.0000 0.0000 -0.0000 -0.0000 0.0000 -0.0000 -0.0000 0.0000 -1.4144 -0.1556 4.0119 -0.2748 -0.3108 -2.8481 0.5349 -0.1084 -5.1927 -0.5584 -1.0664 -11.5989 2.7817 -2.3629 32.3843 0.8338 -0.7666 12.7239 0.0000 0.0000 0.0000 -3.2612 12.5661 -19.3769 21.7679 -32.7137 6.46 12.7897 1.0986 28.3843 0.0 0.0 0.0 -7.1250 0.0 0.0 -10.4082 1.4038 -10.3232 0.0000 0.0000 0.0000 1.7623 20.128 17.4521 -26.1646 -37.3708 -8.9874 -4.2272 22.1657 31.2057 0.0 0.0 0.0 7.1250 0.0 -0.0 30.6568 58.5152 -10.7771
-0.6163 18.7124 5.6584 -0.9711 -0.1360 1.6359 0.0000 0.0000 0.0000 -13.2239 -6.7150 -3.0824 1.2001 6.9507 19.5695 1.3223 3.6274 -23.2983 8.5127 -16.4837 -54.3892 0.0000 0.0000 0.0000 0.0000 0.0000 0.0000 0.0000 0.0000 0.0000 -0.0000 -0.0000 0.0000 -0.0000 -0.0000 0.0000 -1.4203 -0.1537 3.9767 -0.2485 -0.3066 -2.8380 0.5650 -0.1059 -5.1619 -0.4742 -1.0920 -11.5353 2.7070 -2.3954 32.3268 0.7854 -0.7815 12.6848 0.0000 -0.0000 0.0000 -3.3005 12.4842 -19.2597 21.6749 -32.6076 6.4097 12.2001 1.5821 28.2453 0.0 0.0 0.0 -7.1250 0.0 0.0 -10.7452 1.6232 -10.6267 0.0000 -0.0000 0.0000 1.7927 20.1075 17.414 -26.1687 -37.3748 -8.9899 -5.0601 22.6165 31.0656 0.0 0.0 0.0 7.1250 0.0 -0.0 29.7135 58.5789 -10.452
-0.6169 18.7119 5.6608 -0.9752 -0.1085 1.6270 0.0000 0.0000 0.0000 -13.2248 -6.7617 -3.0437 1.1989 6.9473 19.5593 1.3256 3.6548 -23.3386 8.5330 -16.4976 -54.4607 0.0000 0.0000 0.0000 0.0000 0.0000 0.0000 0.0000 0.0000 0.0000 -0.0000 -0.0000 0.0000 -0.0000 -0.0000 0.0000 -1.4087 -0.1457 3.9646 -0.2388 -0.2944 -2.8333 0.5674 -0.1001 -5.1504 -0.4676 -1.1183 -11.4762 2.7413 -2.4456 32.2940 0.7904 -0.7993 12.6601 0.0000 0.0000 0.0000 -3.2932 12.4529 -19.2319 21.6078 -32.531 6.3737 11.653 1.9746 28.0691 0.0 0.0 0.0 -7.1250 0.0 0.0 -11.0559 1.871 -10.8958 0.0000 0.0000 0.0000 1.8311 20.1315 17.4073 -26.1992 -37.4048 -9.0084 -5.6248 22.9197 31.3126 0.0 0.0 0.0 7.1250 0.0 -0.0 29.3690 58.917 -10.5594
-0.6166 18.7119 5.6631 -0.9458 -0.0986 1.6244 0.0000 0.0000 0.0000 -13.2626 -6.7634 -3.0224 1.1970 6.9420 19.5437 1.3251 3.6802 -23.3476 8.5550 -16.5127 -54.5379 0.0000 0.0000 0.0000 0.0000 0.0000 0.0000 0.0000 0.0000 0.0000 -0.0000 -0.0000 0.0000 -0.0000 -0.0000 0.0000 -1.4137 -0.1343 3.9482 -0.2502 -0.2798 -2.8296 0.5570 -0.0930 -5.1375 -0.4933 -1.1341 -11.4755 2.8142 -2.4864 32.3013 0.8173 -0.8110 12.6656 -0.0000 0.0000 0.0000 -3.2596 12.4374 -19.238 21.5574 -32.4732 6.3465 11.1378 2.3806 27.7144 0.0 0.0 0.0 -7.1250 0.0 0.0 -11.3395 2.2883 -11.0998 -0.0000 0.0000 0.0000 1.8715 20.1458 17.4404 -26.2157 -37.4209 -9.0184 -6.7664 23.5091 31.4737 0.0 0.0 0.0 7.1250 0.0 -0.0 28.3700 59.3137 -10.4356
